
<svg width="512" height="512" viewBox="0 0 512 512" fill="none" xmlns="http://www.w3.org/2000/svg">
  <rect width="512" height="512" rx="128" fill="#2563EB"/>
  <path d="M157.867 368L157.867 144H190.533L190.533 258.133L284.267 144H324.8L233.6 254.933L329.6 368H289.067L211.2 273.067L190.533 297.6L190.533 368L157.867 368Z" fill="white"/>
  <path d="M344 240C344 226.745 354.745 216 368 216H392C405.255 216 416 226.745 416 240V344C416 357.255 405.255 368 392 368H368C354.745 368 344 357.255 344 344V240Z" fill="#F97316"/>
  <rect x="96" y="216" width="32" height="32" rx="16" fill="#F97316"/>
</svg>
